<?xml version="1.0" encoding="UTF-8" standalone="no"?>
<!DOCTYPE svg PUBLIC "-//W3C//DTD SVG 1.1//EN" "http://www.w3.org/Graphics/SVG/1.1/DTD/svg11.dtd">
<svg width="100%" height="100%" viewBox="0 0 24 24" version="1.1" xmlns="http://www.w3.org/2000/svg" xmlns:xlink="http://www.w3.org/1999/xlink" xml:space="preserve" xmlns:serif="http://www.serif.com/" style="fill-rule:evenodd;clip-rule:evenodd;stroke-linejoin:round;stroke-miterlimit:2;">
    <g transform="matrix(1.53202,0,0,1.53202,-5.17966,-2.76692)">
        <path d="M6.261,7.761C6.261,7.67 6.195,7.592 6.105,7.577C5.716,7.512 4.696,7.342 4.077,7.239C4.007,7.227 3.952,7.171 3.941,7.101C3.931,7.03 3.967,6.961 4.03,6.929C4.667,6.611 5.79,6.049 6.148,5.87C6.222,5.833 6.304,5.814 6.387,5.814C6.674,5.814 7.381,5.814 7.775,5.814C7.927,5.814 8.05,5.691 8.05,5.539C8.05,5.449 8.05,5.348 8.05,5.255C8.05,5.049 8.166,4.861 8.35,4.769C8.932,4.478 10.195,3.847 10.603,3.643C10.677,3.606 10.768,3.63 10.814,3.699C11.034,4.028 11.628,4.919 11.628,4.919C11.628,4.919 15.278,6.745 16.558,7.384C16.825,7.518 16.994,7.792 16.994,8.091C16.994,9.111 16.994,11.461 16.994,12.481C16.994,12.78 16.825,13.054 16.558,13.187C15.521,13.706 12.927,15.003 11.981,15.476C11.758,15.587 11.497,15.587 11.274,15.476C10.328,15.003 7.734,13.706 6.697,13.187C6.43,13.054 6.261,12.78 6.261,12.481C6.261,11.326 6.261,8.466 6.261,7.761Z" style="fill:url(#_Linear1);"/>
        <path d="M7.691,5.455L6.387,5.455C6.248,5.455 6.112,5.487 5.988,5.549L3.87,6.608C3.667,6.709 3.553,6.93 3.586,7.154C3.62,7.378 3.794,7.555 4.018,7.593L5.902,7.907L5.902,12.481C5.902,12.916 6.148,13.314 6.537,13.509L11.114,15.797C11.437,15.959 11.818,15.959 12.141,15.797L16.718,13.509C17.107,13.314 17.353,12.916 17.353,12.481C17.353,11.461 17.353,9.111 17.353,8.091C17.353,7.656 17.107,7.258 16.718,7.063L11.873,4.641L11.112,3.499C10.966,3.28 10.679,3.203 10.443,3.322C10.035,3.526 8.772,4.157 8.189,4.448C7.884,4.601 7.691,4.913 7.691,5.255L7.691,5.455ZM6.261,7.761C6.261,7.67 6.195,7.592 6.105,7.577C5.716,7.512 4.696,7.342 4.077,7.239C4.007,7.227 3.952,7.171 3.941,7.101C3.931,7.03 3.967,6.961 4.03,6.929C4.667,6.611 5.79,6.049 6.148,5.87C6.222,5.833 6.304,5.814 6.387,5.814C6.674,5.814 7.381,5.814 7.775,5.814C7.927,5.814 8.05,5.691 8.05,5.539C8.05,5.449 8.05,5.348 8.05,5.255C8.05,5.049 8.166,4.861 8.35,4.769C8.932,4.478 10.195,3.847 10.603,3.643C10.677,3.606 10.768,3.63 10.814,3.699C11.034,4.028 11.628,4.919 11.628,4.919C11.628,4.919 15.278,6.745 16.558,7.384C16.825,7.518 16.994,7.792 16.994,8.091C16.994,9.111 16.994,11.461 16.994,12.481C16.994,12.78 16.825,13.054 16.558,13.187C15.521,13.706 12.927,15.003 11.981,15.476C11.758,15.587 11.497,15.587 11.274,15.476C10.328,15.003 7.734,13.706 6.697,13.187C6.43,13.054 6.261,12.78 6.261,12.481C6.261,11.326 6.261,8.466 6.261,7.761Z"/>
        <path d="M16.994,11.18C16.994,11.18 16.994,11.968 16.994,12.498C16.994,12.787 16.831,13.051 16.573,13.18C15.543,13.695 12.909,15.012 11.968,15.482C11.754,15.589 11.501,15.589 11.287,15.482C10.346,15.012 7.713,13.695 6.682,13.18C6.424,13.051 6.261,12.787 6.261,12.498C6.261,11.968 6.261,11.18 6.261,11.18C6.261,11.18 10.069,13.084 11.27,13.685C11.495,13.797 11.76,13.797 11.986,13.685C13.186,13.084 16.994,11.18 16.994,11.18Z" style="fill:url(#_Linear2);"/>
        <path d="M17.255,11.18C17.255,11.09 17.208,11.006 17.131,10.958C17.054,10.911 16.958,10.906 16.877,10.947C16.877,10.947 13.069,12.851 11.869,13.451C11.717,13.527 11.538,13.527 11.386,13.451L6.378,10.947C6.297,10.906 6.201,10.911 6.124,10.958C6.047,11.006 6,11.09 6,11.18C6,11.18 6,11.968 6,12.498C6,12.886 6.219,13.24 6.565,13.413C7.596,13.928 10.229,15.245 11.17,15.716C11.458,15.86 11.797,15.86 12.085,15.716C13.026,15.245 15.659,13.928 16.69,13.413C17.036,13.24 17.255,12.886 17.255,12.498C17.255,11.968 17.255,11.18 17.255,11.18ZM16.994,11.18C16.994,11.18 16.994,11.968 16.994,12.498C16.994,12.787 16.831,13.051 16.573,13.18C15.543,13.695 12.909,15.012 11.968,15.482C11.754,15.589 11.501,15.589 11.287,15.482C10.346,15.012 7.713,13.695 6.682,13.18C6.424,13.051 6.261,12.787 6.261,12.498C6.261,11.968 6.261,11.18 6.261,11.18C6.261,11.18 10.069,13.084 11.27,13.685C11.495,13.797 11.76,13.797 11.986,13.685C13.186,13.084 16.994,11.18 16.994,11.18Z"/>
    </g>
    <defs>
        <linearGradient id="_Linear1" x1="0" y1="0" x2="1" y2="0" gradientUnits="userSpaceOnUse" gradientTransform="matrix(-12.522,1.5335e-15,-1.5335e-15,-12.522,16.9941,8.49706)"><stop offset="0" style="stop-color:rgb(0,119,166);stop-opacity:1"/><stop offset="0.18" style="stop-color:rgb(86,171,204);stop-opacity:1"/><stop offset="0.5" style="stop-color:rgb(102,180,211);stop-opacity:1"/><stop offset="0.79" style="stop-color:rgb(83,161,192);stop-opacity:1"/><stop offset="0.9" style="stop-color:rgb(43,121,153);stop-opacity:1"/><stop offset="1" style="stop-color:rgb(4,82,115);stop-opacity:1"/></linearGradient>
        <linearGradient id="_Linear2" x1="0" y1="0" x2="1" y2="0" gradientUnits="userSpaceOnUse" gradientTransform="matrix(-10.7331,1.31443e-15,-1.31443e-15,-10.7331,16.9941,12.0748)"><stop offset="0" style="stop-color:rgb(211,179,149);stop-opacity:1"/><stop offset="0.09" style="stop-color:rgb(226,196,160);stop-opacity:1"/><stop offset="0.2" style="stop-color:rgb(240,213,171);stop-opacity:1"/><stop offset="0.5" style="stop-color:rgb(246,220,175);stop-opacity:1"/><stop offset="0.79" style="stop-color:rgb(239,212,170);stop-opacity:1"/><stop offset="0.9" style="stop-color:rgb(225,195,159);stop-opacity:1"/><stop offset="1" style="stop-color:rgb(211,179,149);stop-opacity:1"/></linearGradient>
    </defs>
</svg>
