<svg width="100%" height="100%" viewBox="0 0 24 24" style="fill-rule:evenodd;clip-rule:evenodd;stroke-linejoin:round;stroke-miterlimit:2;">
    <path d="M12.042,1.5l-0.042,0l-0.042,0c-3.568,0.023 -6.458,2.927 -6.458,6.5l0,0.041l0,7.959c0,3.587 2.913,6.5 6.5,6.5c3.587,0 6.5,-2.913 6.5,-6.5l0,-8c0,-2.076 -0.975,-3.925 -2.492,-5.116c-1.094,-0.859 -2.471,-1.374 -3.966,-1.384Zm5.458,9.964c-0.284,0.45 -0.623,0.863 -1.006,1.23l-0.005,0.005c-0.688,0.658 -1.52,1.166 -2.443,1.472l-0.968,0.24l-1.078,0.089c-0.726,0 -1.246,0.161 -1.611,0.471c-0.361,0.308 -0.562,0.751 -0.687,1.267c-0.194,0.801 -0.202,1.768 -0.202,2.762c-0,0.276 -0.224,0.5 -0.5,0.5c-0.276,-0 -0.5,-0.224 -0.5,-0.5c-0,-1.079 0.019,-2.128 0.23,-2.998c0.179,-0.737 0.495,-1.354 1.012,-1.793c0.031,-0.026 0.063,-0.052 0.096,-0.078c-0.877,-0.309 -1.668,-0.802 -2.327,-1.432l-0.002,-0.002c-0.384,-0.367 -0.724,-0.781 -1.009,-1.233l0,4.536c0,3.036 2.464,5.5 5.5,5.5c3.036,-0 5.5,-2.464 5.5,-5.5l-0,-4.536Zm-4.581,1.959l-0.885,0.077l-1.015,-0.087l-0.569,-0.135c-0.766,-0.225 -1.463,-0.612 -2.05,-1.122c0.172,-0.825 0.501,-1.567 0.944,-2.166c0.527,0.469 1.179,0.8 1.899,0.938l0.783,0.072l0.509,-0.036c0.808,-0.108 1.54,-0.457 2.121,-0.974l-0,0c0.443,0.599 0.772,1.341 0.945,2.165c-0.746,0.648 -1.667,1.097 -2.682,1.268Zm-0.919,-10.923c-3.024,-0 -5.48,2.483 -5.5,5.502l0,0.021c0.005,1.224 0.411,2.354 1.093,3.266c0.245,-0.786 0.617,-1.489 1.081,-2.067c-0.425,-0.636 -0.674,-1.4 -0.674,-2.222c0,-2.208 1.792,-4 4,-4c2.208,0 4,1.792 4,4c0,0.822 -0.248,1.586 -0.674,2.222c0.464,0.578 0.836,1.281 1.081,2.067c0.687,-0.918 1.093,-2.056 1.093,-3.289c0,-0.202 -0.011,-0.401 -0.032,-0.597l-0.004,-0.034c-0.02,-0.175 -0.048,-0.347 -0.084,-0.517c-0.02,-0.093 -0.042,-0.185 -0.067,-0.277c-0.021,-0.078 -0.043,-0.156 -0.068,-0.234c-0.006,-0.018 -0.011,-0.036 -0.017,-0.053c-0.011,-0.034 -0.023,-0.067 -0.034,-0.101c-0.01,-0.027 -0.019,-0.054 -0.029,-0.081l-0.013,-0.033c-0.019,-0.053 -0.04,-0.105 -0.061,-0.157c-0.086,-0.208 -0.184,-0.411 -0.293,-0.606c-0.015,-0.025 -0.029,-0.05 -0.044,-0.075l-0.017,-0.029c-0.039,-0.066 -0.079,-0.131 -0.121,-0.196c-0.009,-0.014 -0.018,-0.028 -0.028,-0.042c-0.022,-0.033 -0.044,-0.067 -0.067,-0.1l-0.017,-0.024l-0.011,-0.015c-0.046,-0.065 -0.093,-0.129 -0.142,-0.192c-0.008,-0.011 -0.017,-0.022 -0.026,-0.033c-0.154,-0.196 -0.321,-0.382 -0.5,-0.555l-0.031,-0.03l-0.024,-0.022l-0.017,-0.016c-0.089,-0.083 -0.18,-0.163 -0.274,-0.239c-0.045,-0.037 -0.09,-0.073 -0.136,-0.109l-0.027,-0.02c-0.485,-0.368 -1.034,-0.657 -1.626,-0.848c-0.049,-0.016 -0.098,-0.031 -0.148,-0.045c-0.012,-0.004 -0.025,-0.008 -0.037,-0.011c-0.044,-0.013 -0.087,-0.024 -0.131,-0.036l-0.033,-0.008c-0.061,-0.015 -0.121,-0.029 -0.182,-0.043c-0.019,-0.004 -0.038,-0.007 -0.057,-0.011c-0.129,-0.027 -0.26,-0.049 -0.393,-0.066c-0.04,-0.005 -0.081,-0.01 -0.121,-0.014c-0.043,-0.004 -0.087,-0.009 -0.13,-0.012l-0.035,-0.003c-0.023,-0.002 -0.047,-0.003 -0.07,-0.005l-0.035,-0.002c-0.033,-0.002 -0.066,-0.003 -0.099,-0.005l-0.042,-0.001l-0.035,-0.001c-0.023,-0.001 -0.047,-0.001 -0.071,-0.002l-0.035,0l-0.036,-0Zm2.306,6.418c0.433,-0.52 0.694,-1.189 0.694,-1.918c-0,-1.656 -1.344,-3 -3,-3c-1.656,0 -3,1.344 -3,3c0,0.729 0.261,1.398 0.694,1.918c0.002,0.002 0.003,0.004 0.005,0.006c0.456,0.544 1.101,0.925 1.834,1.04l0.599,0.033l0.336,-0.033c0.732,-0.115 1.377,-0.496 1.833,-1.04c0.002,-0.002 0.004,-0.004 0.005,-0.006Z"/>
</svg>
